<?xml version="1.0" standalone="no"?><!DOCTYPE svg PUBLIC "-//W3C//DTD SVG 1.1//EN" "http://www.w3.org/Graphics/SVG/1.1/DTD/svg11.dtd"><svg t="1749304511241" class="icon" viewBox="0 0 1024 1024" version="1.1" xmlns="http://www.w3.org/2000/svg" p-id="32472" xmlns:xlink="http://www.w3.org/1999/xlink" width="200" height="200"><path d="M816.8448 613.12c-55.5008 0-106.0352-21.3504-143.872-56.2688-3.9424-3.6352-10.0352-3.6352-13.9264 0-37.8368 34.9184-88.32 56.2688-143.872 56.2688-55.4496 0-105.9328-21.2992-143.7696-56.1664-3.9424-3.6352-10.0352-3.6352-13.9264 0-37.7856 34.8672-88.2688 56.1664-143.7696 56.1664-35.1744 0-68.352-8.6016-97.5872-23.7568-6.912-3.584-15.104 1.5872-15.104 9.3184v233.2672c0 58.0096 47.0016 105.0112 105.0112 105.0112H799.744c58.0096 0 105.0112-47.0016 105.0112-105.0112v-222.3104c0-7.3216-7.3216-12.288-14.1824-9.728a212.20864 212.20864 0 0 1-73.728 13.2096z" fill="#8C7BFD" p-id="32473"></path><path d="M947.5072 353.2288c29.0304 68.9664 4.1984 150.1696-60.3648 188.0576a161.93536 161.93536 0 0 1-82.1248 22.272c-57.5488 0-108.1344-29.952-137.0112-75.1104-6.4512-10.0864-21.1968-10.0864-27.648 0-28.8768 45.1584-79.4112 75.1104-137.0112 75.1104s-108.1344-29.952-137.0112-75.1104c-6.4512-10.0864-21.1968-10.0864-27.648 0-28.8768 45.1584-79.4112 75.1104-137.0112 75.1104-34.9184 0-67.2768-11.008-93.7472-29.7472-56.32-39.8336-76.2368-114.2272-50.6368-178.2784l75.1616-187.9552a127.88224 127.88224 0 0 1 118.784-80.4352h499.3536c51.456 0 97.9456 30.8736 117.9136 78.2848l79.0016 187.8016z" fill="#8C7BFD" p-id="32474"></path><path d="M757.504 377.8048H248.2688c-28.9792 0-52.5312-23.5008-52.5312-52.5312s23.5008-52.5312 52.5312-52.5312h509.2352c28.9792 0 52.5312 23.5008 52.5312 52.5312s-23.5008 52.5312-52.5312 52.5312z" fill="#FFE37B" p-id="32475"></path></svg>